# xmcd
#
# Track frame offsets: 
#        150
#        11180
#        24785
#        36407
#        48815
#        62192
#        75015
#        87842
#        100965
#        114362
#        127677
#        138445
#        152815
#        163787
#        177452
#        189495
#        201712
#        212930
#
# Disc length: 2977 seconds
#
# Revision: 1
# Processed by: cddbd v1.4PL0 Copyright (c) Steve Scherf et al.
# Submitted via: ExactAudioCopy v0.90b4
#
DISCID=ef0b9f12
DTITLE=Patti Page - Super Selection
DYEAR=1900
DGENRE=Country
TTITLE0=Tennessee Waltz
TTITLE1=I Went to Your Wedding
TTITLE2=Hush, Hush, Sweet Charlotte
TTITLE3=Love Letters
TTITLE4=The End of the World
TTITLE5=The Good Life
TTITLE6=Moon River
TTITLE7=Days of Wine and Roses
TTITLE8=Fly Me to the Moon(In Other Words)
TTITLE9=Allegheny Moon
TTITLE10=Say Wonderful Things
TTITLE11=Old Cape Cod
TTITLE12=If and When
TTITLE13=Mockin' Bird Hill
TTITLE14=Cross Over the Bridge
TTITLE15=(How Much is That)Doggie in the Window
TTITLE16=Can't Help Falling in Love
TTITLE17=Changing Partners
EXTD=A Japan Release/Production\n\nAVC-302
EXTT0=
EXTT1=
EXTT2=
EXTT3=
EXTT4=
EXTT5=
EXTT6=
EXTT7=
EXTT8=
EXTT9=
EXTT10=
EXTT11=
EXTT12=
EXTT13=
EXTT14=
EXTT15=
EXTT16=
EXTT17=
PLAYORDER=
